<svg width="39" height="40" viewBox="0 0 39 40" fill="none" xmlns="http://www.w3.org/2000/svg">
<path opacity="0.9" d="M2.49951 25.8217C2.35458 23.9181 3.15392 21.7294 3.43211 20.4295C3.70731 20.0582 4.10621 20.4887 4.2964 20.1203C4.05841 18.6686 5.76584 18.4686 5.37731 17.1204C6.58873 16.913 7.40524 15.2906 8.63178 14.7481C8.92326 14.1797 8.99132 13.5227 8.82256 12.9066C9.76448 12.5836 9.55015 14.0454 10.2186 14.3381C12.5661 12.4548 15.8882 12.9103 18.0714 11.0529C18.1386 11.4501 17.7703 11.7667 17.6595 12.1121C18.1192 12.8729 18.5634 12.0449 19.2237 12.0264C19.5592 11.6594 19.7932 11.2114 19.9027 10.7265C20.0122 10.2416 19.9935 9.73649 19.8483 9.26102C20.4189 9.16959 21.174 9.70353 21.0235 10.3138L25.4808 9.65627C25.9151 8.944 26.419 8.27658 26.9851 7.6638C27.8818 8.5993 25.6417 8.63503 26.6021 9.7325C27.4453 9.84168 28.232 9.54626 28.329 8.61642C29.7428 8.63416 31.5088 10.7535 32.3817 8.52213C33.87 6.92081 36.4182 6.28523 38.5836 5.84155C37.0329 6.77236 35.3243 7.41032 33.543 7.72364L34.8133 7.95881C34.4726 8.43063 33.7054 7.80999 33.0192 8.17094C33.2006 8.20453 33.5703 8.99556 34.2962 8.87657C34.4985 8.59495 34.2168 8.39267 34.0266 8.25423C34.2168 8.39267 34.4621 8.33486 34.7162 8.38189C35.1047 9.73008 33.1691 9.03389 33.0566 10.4019L33.3036 11.8553C32.614 11.2209 32.6106 10.2255 31.6274 9.80888C31.2366 10.4497 29.9751 10.8262 30.782 11.6888C32.2871 11.7703 32.7446 14.5202 33.5602 14.4741C34.1842 14.7022 33.9738 13.4058 34.6086 13.8799C33.9897 15.1448 35.8316 16.2459 35.0466 17.5458C34.3778 17.7136 33.6701 17.6195 33.0683 17.2828L32.7996 18.7345C32.3679 18.6733 31.9281 18.7567 31.5488 18.9716C31.1695 19.1866 30.872 19.5211 30.7027 19.9228C30.7683 20.3291 31.3056 20.5694 31.2152 20.9561C30.8339 23.0158 28.0229 22.9927 27.4453 24.2371C28.112 24.7922 28.9696 24.5193 29.6142 24.7888C27.3912 24.3773 29.122 27.4473 26.6944 26.7726C26.8013 27.9185 29.2557 27.1811 28.6035 28.7777C28.2862 28.7717 27.9773 28.6744 27.7139 28.4975C27.4504 28.3206 27.2434 28.0715 27.1178 27.78C26.8547 27.7313 26.6128 28.2777 26.5053 28.6051C27.0167 29.1877 28.2796 29.1588 27.8448 30.1387C27.2333 29.8213 26.5486 29.6719 25.8604 29.7056C25.9553 30.7648 24.1611 30.977 24.7778 32.2079C25.6042 32.1544 26.7444 33.0412 26.2881 33.7825C25.241 33.964 23.8433 31.5281 22.8819 33.2739C22.4757 33.3394 21.9068 33.9285 22.4236 34.1275C23.7355 34.4923 23.9309 36.1238 24.8063 36.971C24.1443 36.9985 22.8001 35.8957 22.0846 35.097C20.8628 35.7153 19.5894 34.635 18.2997 34.8092C17.5964 35.6174 18.3549 36.1332 18.4238 37.028C16.6578 35.4155 13.751 34.8961 11.404 33.7859L10.5156 34.9352C9.97482 33.1928 8.67366 33.3273 7.76627 31.8925C7.10427 31.9201 7.53813 32.5165 6.87613 32.5441C6.97149 31.1166 5.11352 31.4201 5.4495 30.1122L4.58219 30.3364C4.84997 29.4475 4.09147 28.425 3.23625 28.7359C3.46904 28.2398 3.52286 27.6784 3.38855 27.1472C3.25423 26.6159 2.94009 26.1476 2.49951 25.8217Z" fill="#FEB943"/>
</svg>
