<svg width="40" height="47" viewBox="0 0 40 47" fill="none" xmlns="http://www.w3.org/2000/svg">
<path opacity="0.8" d="M7.92808 18.1681C7.92808 16.4509 10.5479 19.0954 10.6336 16.3478C10.4452 15.7468 9.05822 16.1589 9.33219 15.1114C12.1233 11.1619 11.8151 5.01425 11.7979 0C12.3288 0.995981 14.2294 0.944467 14.4692 2.36975C15.0342 4.65364 12.8938 8.75776 16.7466 8.82645C18.4838 9.45936 20.0763 10.4362 21.4295 11.6988C22.7826 12.9614 23.8688 14.484 24.6233 16.1761C29.7603 17.3782 30.1541 10.1144 35.4795 11.0245C35.8342 11.4455 36.0768 11.9498 36.1846 12.4904C36.2924 13.0309 36.2619 13.59 36.0959 14.1155C35.3082 16.9832 31.7979 17.7559 31.6781 20.7954C32.8425 21.3277 34.3322 21.4308 35.1027 22.5126C36.6096 26.0844 39.0411 29.6905 40 32.7128C38.2877 33.2795 36.4726 32.232 35.1712 33.1765C35.9075 34.327 34.1438 35.7179 35.9247 36.5079C35.9247 37.8988 34.2123 38.0877 33.1164 38.2251C32.8767 40.0797 38.75 41.4534 35.5651 42.4666C35.0685 43.8232 33.8527 41.8484 33.2534 41.7625C33.3479 41.3384 33.3479 40.8987 33.2534 40.4746C29.1781 40.0797 25.8048 37.8129 21.7979 37.3149C19.9144 40.1827 22.1404 43.6514 21.1644 47C20.3253 46.4161 20.7363 44.5272 20.0342 43.5656L17.5171 42.106C14.9486 44.6474 12.6712 41.9342 10.2055 42.9817C10.3596 42.312 11.3014 41.4191 11.3356 40.509C12.8425 38.62 9.43493 38.3624 10.1199 36.5079C8.86986 35.6321 7.05479 36.6796 5.58219 36.5079C4.82877 38.0018 3.09931 38.019 2.63698 39.5645C1.43835 40.5776 1.67808 38.2594 0.839041 38.122C3.11644 36.0099 6.50685 34.5159 7.68836 31.4764C5.87329 30.5148 9.14383 29.8623 7.19178 29.1067L5.47945 29.2956C5.58153 29.1901 5.65904 29.0632 5.70643 28.924C5.75382 28.7849 5.76991 28.637 5.75354 28.4909C5.73717 28.3448 5.68875 28.2041 5.61175 28.079C5.53476 27.9539 5.4311 27.8474 5.30822 27.7673C4.15805 27.7462 3.0092 27.8556 1.88356 28.0935C2.14041 27.4925 3.0137 26.7198 2.58562 25.7753L0.393835 25.0197C1.40638 25.0409 2.41047 24.8308 3.33011 24.4054C4.24975 23.9799 5.06085 23.3503 5.70205 22.5641C5.46233 21.6025 3.88698 22.049 3.90411 21.5853C4.36644 21.5853 5.47945 21.7742 5.85616 21.259C5.25209 20.0929 4.42351 19.0585 3.41833 18.2155C2.41315 17.3725 1.25132 16.7377 0 16.3478C0.753425 16.5882 0.154108 15.6781 0.376711 15.369C2.81267 16.509 5.33838 17.4452 7.92808 18.1681Z" fill="#287269"/>
</svg>
