<svg width="36" height="35" viewBox="0 0 36 35" fill="none" xmlns="http://www.w3.org/2000/svg">
<path opacity="0.8" d="M9.72156 2.05711C13.3647 4.31594 16.4534 -0.581518 20.5321 0.0581498C22.3932 0.477932 20.5321 2.61682 22.1556 3.39642C22.6704 2.67679 23.5218 2.21703 23.8386 1.51739C24.1752 2.31698 23.106 4.09605 24.7692 4.55581C26.3435 4.86979 27.9676 4.82196 29.521 4.41589C31.9168 6.87461 27.8381 13.9309 33.9957 12.4117C33.085 13.2113 31.3426 12.8715 31.0258 14.0909C31.204 15.8699 36.1143 15.5701 33.7977 18.0888C33.184 18.0888 32.4712 18.4086 32.8276 19.2082C33.0453 21.2072 36.1341 20.1277 35.9955 21.8468C33.5799 22.4665 32.0356 24.8453 29.422 24.0457C27.7787 24.8453 28.8875 27.1041 28.4123 28.0436C27.0065 30.3024 24.4524 27.224 22.6704 29.0031C22.8293 30.0781 22.7463 31.1755 22.4275 32.2137C22.1087 33.2519 21.5624 34.2042 20.8291 35C19.8787 32.5013 17.9185 34.5402 16.8692 34.8401C15.5624 30.8422 10.9293 34.5802 9.56316 31.4019C9.24636 32.1015 9.34536 33.2409 8.35539 33.101C7.801 31.6018 10.3353 30.3224 8.1178 29.1031C7.02883 28.8632 7.00903 26.8442 5.48447 27.1041C4.75189 27.1041 4.5341 28.9831 3.74212 28.0436C4.2965 25.7248 2.59375 23.0462 1.76217 20.6275C1.40578 19.0883 4.0589 19.1682 2.63334 17.609C1.82156 17.2092 0.653383 18.0488 0 16.9894C1.86115 12.9914 6.19725 8.71365 5.70226 3.27648C6.21303 2.74321 6.85072 2.3511 7.5544 2.13762C8.25808 1.92414 9.00424 1.89642 9.72156 2.05711Z" fill="#366677"/>
</svg>
