<svg width="45" height="30" viewBox="0 0 45 30" fill="none" xmlns="http://www.w3.org/2000/svg">
<path opacity="0.85" d="M9.61309 0.00777782C10.3896 -0.0338486 11.1661 0.0919635 11.8883 0.376475C12.6105 0.660986 13.2613 1.09736 13.7952 1.65521L15.055 3.6042C14.3096 3.8469 13.9368 4.43527 14.727 4.68533C14.9876 4.71311 15.25 4.65149 15.4699 4.51085C15.6899 4.3702 15.854 4.15911 15.9347 3.91309C16.2478 4.33966 17.1349 4.06754 17.1051 4.8692C17.4533 4.07221 18.0263 3.39067 18.7558 2.90565C19.4853 2.42063 20.3406 2.15254 21.2201 2.13327L21.6674 3.11144C23.6503 1.29484 24.5896 3.74393 26.7366 3.54536C30.9112 2.96434 28.2275 6.23715 32.3127 5.81794C31.5076 6.14154 30.0763 6.5534 31.0454 7.61982C31.8505 8.23026 32.9613 7.03881 33.9304 7.75956C33.6099 9.23049 29.5172 7.9655 31.4927 10.4734C32.5736 11.0177 32.8047 12.3341 33.4458 13.202C36.5321 13.5844 38.12 17.2618 41.728 16.438C40.1402 16.5116 41.0422 17.909 40.7888 18.6444C41.8622 20.1154 43.5023 19.6152 44.7472 20.2698C44.4938 21.0494 45.4927 21.3215 44.6652 22.0938C42.5332 21.1303 40.5949 19.6961 38.1498 19.2402C37.4789 20.1154 36.0848 20.4316 36.7408 21.6525C38.1871 24.4252 38.9773 28.5658 40.9528 30C36.8079 26.9699 32.1115 25.0136 27.8101 22.2409C25.9091 24.1089 30.2701 23.9913 29.301 25.3666C27.6908 24.7267 27.1466 26.1462 25.9911 26.8375L21.7568 24.3369C21.0636 24.4987 21.1008 24.9915 20.6685 25.3077C18.432 25.3077 18.6259 21.5936 15.9943 22.1894C14.6674 20.9023 15.2041 19.1225 13.579 18.1223C12.2073 18.7915 14.563 19.196 14.4512 20.3287C13.7057 20.439 13.3255 18.9313 12.3639 19.5049C12.3639 21.0273 14.6003 22.3953 13.0423 23.6824C12.4832 22.5056 11.432 23.9766 10.6493 23.1381C9.7771 23.7706 10.6493 24.4399 11.2308 24.6679C10.2318 25.1092 9.93365 23.5206 9.15836 23.6235C8.73344 24.3002 10.3735 25.0945 8.91981 25.0945C8.76252 24.8055 8.53915 24.5567 8.26741 24.3677C7.99567 24.1788 7.68303 24.0549 7.35431 24.006C6.83994 24.6238 7.93578 24.9547 7.70469 25.4769C5.2819 22.9248 1.08489 21.8584 0.190324 18.0193C-0.0149759 17.2488 -0.0547105 16.4445 0.0736699 15.6579C0.20205 14.8714 0.495709 14.12 0.935796 13.4521C2.06891 12.974 3.79841 10.9956 5.22972 12.1135C6.39266 11.7826 7.78669 12.4003 8.83035 12.8122C8.66634 12.1282 8.33088 10.9809 9.1509 10.4293C11.0295 11.5913 10.0455 14.2684 11.9539 15.5776C12.0284 14.3346 12.6546 12.6357 11.6482 11.7531C11.8868 10.2822 14.1307 9.54675 12.9081 8.07582C13.2225 8.1064 13.5398 8.06096 13.8325 7.94343C13.7774 7.33543 13.6853 6.73125 13.5566 6.13418C11.4991 6.74462 8.45016 5.56053 7.87614 3.09673C7.26486 1.83908 8.30852 0.37551 9.61309 0.00777782Z" fill="#85E6D0"/>
</svg>
