<svg width="46" height="44" viewBox="0 0 46 44" fill="none" xmlns="http://www.w3.org/2000/svg">
<path opacity="0.8" d="M34.983 10.9204C35.0174 12.2138 36.9931 13.611 36.2989 14.6771C35.5552 14.4477 35.0972 14.9418 35.0243 15.6767C35.2948 16.398 36.2537 16.5336 36.2092 17.3967C33.583 18.8416 35.0668 19.7656 33.098 21.8312C33.2952 22.9613 34.7455 23.2441 35.7288 23.7558C35.3361 24.3367 35.0719 23.4611 34.6634 23.6051C36.5752 25.8937 39.6543 26.6242 41.8854 28.7406C41.3285 28.5066 40.8714 29.6528 40.9541 29.7266L35.6418 26.8949C30.7975 29.3145 28.5054 33.4457 26.5168 38.5047C25.8144 39.9578 28.7656 40.9342 26.6797 41.6327C23.844 40.8279 24.6139 36.3727 21.855 36.1221C18.8164 36.8019 15.7283 37.2372 12.6202 37.4238C10.6716 36.8222 13.7528 34.2463 10.929 34.235C10.5426 34.6616 10.3153 35.3901 9.58725 35.4889C9.08596 34.5331 10.8186 33.0395 9.18076 32.3266C8.29802 32.2017 8.09794 33.7258 7.10331 32.8555C6.5779 31.741 8.74697 31.4424 7.74528 30.183C7.36352 27.6141 5.58252 30.3272 4.57453 29.2221C4.67643 28.8406 4.86301 28.4869 5.1204 28.1873C5.37778 27.8878 5.69936 27.6501 6.06123 27.4919C6.05347 26.2098 5.74261 24.9476 5.15405 23.8085C4.42828 24.1433 3.61671 24.2455 2.83063 24.1008C3.6049 22.7977 5.58613 21.8515 5.94227 19.9924C5.82474 18.2992 4.01873 20.2016 4.05554 18.5146C4.84177 18.0049 6.38787 18.3788 7.01039 17.3802L6.37679 15.0551C9.58049 11.503 13.992 10.497 16.7037 6.47171C19.4669 6.10312 22.1091 5.10679 24.4277 3.55908C24.7814 4.68029 24.9718 5.63868 26.1918 6.01308C26.9132 5.74254 27.7151 5.56101 28.4343 5.30569C29.0021 5.68099 28.6989 6.50745 29.4296 6.71949L31.1962 6.19318C31.6326 7.38818 31.578 8.76211 32.6529 9.50408C33.3997 10.3704 34.2114 9.46065 35.0611 9.27036C35.4401 9.77417 35.1301 10.4289 34.983 10.9204Z" fill="#FDD961"/>
</svg>
