<svg width="26" height="26" viewBox="0 0 26 26" fill="none" xmlns="http://www.w3.org/2000/svg">
<path fill-rule="evenodd" clip-rule="evenodd" d="M13 26C20.1797 26 26 20.1797 26 13C26 5.8203 20.1797 0 13 0C5.8203 0 0 5.8203 0 13C0 20.1797 5.8203 26 13 26ZM6.15277 5.73569C6.02444 5.628 6.0077 5.43667 6.11538 5.30834C6.22307 5.18001 6.4144 5.16327 6.54273 5.27095L8.40167 6.83079C8.53 6.93847 8.54674 7.1298 8.43906 7.25813C8.33138 7.38647 8.14004 7.40321 8.01171 7.29552L6.15277 5.73569ZM15.0205 18.2205V17.7149C15.0205 16.6959 15.7051 15.6769 16.3078 14.9646C17.3773 14.0376 18.0538 12.6691 18.0538 11.1427C18.0538 8.35054 15.7904 6.08709 12.9983 6.08709C10.2062 6.08709 7.9427 8.35054 7.9427 11.1427C7.9427 12.6691 8.61921 14.0376 9.68878 14.9646C10.2914 15.6769 10.976 16.6959 10.976 17.7149V18.2205C10.976 18.4997 11.2024 18.726 11.4816 18.726H14.5149C14.7942 18.726 15.0205 18.4997 15.0205 18.2205ZM11.2794 19.2316C11.1118 19.2316 10.976 19.3674 10.976 19.5349C10.976 19.7024 11.1118 19.8382 11.2794 19.8382H14.7172C14.8847 19.8382 15.0205 19.7024 15.0205 19.5349C15.0205 19.3674 14.8847 19.2316 14.7172 19.2316H11.2794ZM10.976 20.546C10.976 20.3785 11.1118 20.2427 11.2794 20.2427H14.7172C14.8847 20.2427 15.0205 20.3785 15.0205 20.546C15.0205 20.7136 14.8847 20.8494 14.7172 20.8494H11.2794C11.1118 20.8494 10.976 20.7136 10.976 20.546ZM12.2905 21.2538C12.123 21.2538 11.9872 21.3896 11.9872 21.5571C11.9872 21.7247 12.123 21.8605 12.2905 21.8605H13.706C13.8736 21.8605 14.0094 21.7247 14.0094 21.5571C14.0094 21.3896 13.8736 21.2538 13.706 21.2538H12.2905ZM8.01167 15.3821C8.14001 15.2744 8.33134 15.2911 8.43902 15.4195C8.54671 15.5478 8.52997 15.7391 8.40163 15.8468L6.54269 17.4066C6.41436 17.5143 6.22303 17.4976 6.11534 17.3693C6.00766 17.2409 6.0244 17.0496 6.15273 16.9419L8.01167 15.3821ZM17.2377 15.4195C17.3454 15.2911 17.5367 15.2744 17.6651 15.3821L19.524 16.9419C19.6523 17.0496 19.6691 17.2409 19.5614 17.3693C19.4537 17.4976 19.2624 17.5143 19.134 17.4066L17.2751 15.8468C17.1468 15.7391 17.13 15.5478 17.2377 15.4195ZM6.62819 11.1446C6.79571 11.1435 6.93239 11.2784 6.93347 11.446C6.93455 11.6135 6.79962 11.7502 6.63209 11.7512L4.20547 11.7668C4.03794 11.7679 3.90127 11.633 3.90019 11.4655C3.89911 11.2979 4.03404 11.1613 4.20156 11.1602L6.62819 11.1446ZM19.0669 11.446C19.068 11.2784 19.2046 11.1435 19.3722 11.1446L21.7988 11.1602C21.9663 11.1613 22.1013 11.2979 22.1002 11.4655C22.0991 11.633 21.9624 11.7679 21.7949 11.7668L19.3683 11.7512C19.2007 11.7502 19.0658 11.6135 19.0669 11.446ZM20.5725 5.30834C20.6802 5.43667 20.6634 5.628 20.5351 5.73569L18.6761 7.29552C18.5478 7.40321 18.3565 7.38647 18.2488 7.25813C18.1411 7.1298 18.1578 6.93847 18.2862 6.83079L20.1451 5.27095C20.2735 5.16327 20.4648 5.18001 20.5725 5.30834Z" fill="white" fill-opacity="0.7"/>
</svg>
