<svg width="50" height="50" viewBox="0 0 50 50" fill="none" xmlns="http://www.w3.org/2000/svg">
<g filter="url(#filter0_b)">
<path fill-rule="evenodd" clip-rule="evenodd" d="M50 25C50 38.8071 38.8071 50 25 50C11.1929 50 0 38.8071 0 25C0 11.1929 11.1929 0 25 0C38.8071 0 50 11.1929 50 25ZM21.0007 34.0384C21.0007 34.5694 21.4311 34.9999 21.9622 34.9999H28.0391C28.5702 34.9999 29.0007 34.5694 29.0007 34.0384V32.9385C29.0278 30.9428 30.3674 28.9532 31.5475 27.5584C33.6623 25.7249 34.9998 23.0186 34.9998 20C34.9998 14.4771 30.5227 9.99996 24.9998 9.99996C19.477 9.99996 14.9998 14.4771 14.9998 20C14.9998 23.0201 16.3387 25.7275 18.4552 27.5611C19.6469 28.9701 21.0002 30.985 21.0002 32.9999L21.0007 34.0384ZM21.6007 36.0001C21.2693 36.0001 21.0007 36.2687 21.0007 36.6001C21.0007 36.9315 21.2693 37.2001 21.6007 37.2001H28.4007C28.732 37.2001 29.0007 36.9315 29.0007 36.6001C29.0007 36.2687 28.732 36.0001 28.4007 36.0001H21.6007ZM21.0007 38.6001C21.0007 38.2687 21.2693 38.0001 21.6007 38.0001H28.4007C28.732 38.0001 29.0007 38.2687 29.0007 38.6001C29.0007 38.9315 28.732 39.2001 28.4007 39.2001H21.6007C21.2693 39.2001 21.0007 38.9315 21.0007 38.6001ZM23.6 40.0001C23.2686 40.0001 23 40.2687 23 40.6001C23 40.9315 23.2686 41.2001 23.6 41.2001H26.4C26.7314 41.2001 27 40.9315 27 40.6001C27 40.2687 26.7314 40.0001 26.4 40.0001H23.6Z" fill="white" fill-opacity="0.7"/>
</g>
<defs>
<filter id="filter0_b" x="-1" y="-1" width="52" height="52" filterUnits="userSpaceOnUse" color-interpolation-filters="sRGB">
<feFlood flood-opacity="0" result="BackgroundImageFix"/>
<feGaussianBlur in="BackgroundImage" stdDeviation="0.5"/>
<feComposite in2="SourceAlpha" operator="in" result="effect1_backgroundBlur"/>
<feBlend mode="normal" in="SourceGraphic" in2="effect1_backgroundBlur" result="shape"/>
</filter>
</defs>
</svg>
