<svg width="50" height="50" viewBox="0 0 50 50" fill="none" xmlns="http://www.w3.org/2000/svg">
<path d="M30.6 35.6987V37.0769C30.6 37.8381 29.9732 38.4551 29.2 38.4551H20.8C20.0268 38.4551 19.4 37.8381 19.4 37.0769V35.6987C19.4 32.9208 17.5041 30.1429 15.8353 28.201C12.8734 25.6739 11 21.9434 11 17.7821C11 10.1704 17.268 4 25 4C32.732 4 39 10.1704 39 17.7821C39 21.9434 37.1266 25.6739 34.1647 28.201C32.4959 30.1429 30.6 32.9208 30.6 35.6987Z" fill="#323232"/>
<path d="M19.4 40.6603C19.4 40.2036 19.7761 39.8333 20.24 39.8333H29.76C30.2239 39.8333 30.6 40.2036 30.6 40.6603C30.6 41.117 30.2239 41.4872 29.76 41.4872H20.24C19.7761 41.4872 19.4 41.117 19.4 40.6603Z" fill="#323232"/>
<path d="M19.4 43.4167C19.4 42.96 19.7761 42.5897 20.24 42.5897H29.76C30.2239 42.5897 30.6 42.96 30.6 43.4167C30.6 43.8734 30.2239 44.2436 29.76 44.2436H20.24C19.7761 44.2436 19.4 43.8734 19.4 43.4167Z" fill="#323232"/>
<path d="M22.2 46.1731C22.2 45.7164 22.5761 45.3462 23.04 45.3462H26.96C27.4239 45.3462 27.8 45.7164 27.8 46.1731C27.8 46.6298 27.4239 47 26.96 47H23.04C22.5761 47 22.2 46.6298 22.2 46.1731Z" fill="#323232"/>
</svg>
