<svg width="50" height="50" viewBox="0 0 50 50" fill="none" xmlns="http://www.w3.org/2000/svg">
<g filter="url(#filter0_b)">
<path fill-rule="evenodd" clip-rule="evenodd" d="M25 50C38.8071 50 50 38.8071 50 25C50 11.1929 38.8071 0 25 0C11.1929 0 0 11.1929 0 25C0 38.8071 11.1929 50 25 50ZM11.8323 11.0302C11.5855 10.8231 11.5533 10.4551 11.7604 10.2083C11.9674 9.96155 12.3354 9.92936 12.5822 10.1364L16.1571 13.1361C16.4039 13.3432 16.436 13.7112 16.229 13.958C16.0219 14.2047 15.6539 14.2369 15.4071 14.0299L11.8323 11.0302ZM28.8856 35.0393V34.0671C28.8856 32.1075 30.2022 30.1479 31.3611 28.778C33.4179 26.9953 34.7189 24.3637 34.7189 21.4282C34.7189 16.0587 30.3661 11.7059 24.9967 11.7059C19.6272 11.7059 15.2744 16.0587 15.2744 21.4282C15.2744 24.3637 16.5754 26.9953 18.6323 28.778C19.7912 30.1479 21.1078 32.1075 21.1078 34.0671V35.0393C21.1078 35.5763 21.543 36.0116 22.08 36.0116H27.9133C28.4503 36.0116 28.8856 35.5763 28.8856 35.0393ZM21.6911 36.9838C21.3689 36.9838 21.1078 37.245 21.1078 37.5671C21.1078 37.8893 21.3689 38.1505 21.6911 38.1505H28.3022C28.6244 38.1505 28.8856 37.8893 28.8856 37.5671C28.8856 37.245 28.6244 36.9838 28.3022 36.9838H21.6911ZM21.1078 39.5116C21.1078 39.1894 21.3689 38.9283 21.6911 38.9283H28.3022C28.6244 38.9283 28.8856 39.1894 28.8856 39.5116C28.8856 39.8338 28.6244 40.0949 28.3022 40.0949H21.6911C21.3689 40.0949 21.1078 39.8338 21.1078 39.5116ZM23.6356 40.8727C23.3134 40.8727 23.0522 41.1339 23.0522 41.456C23.0522 41.7782 23.3134 42.0394 23.6356 42.0394H26.3578C26.68 42.0394 26.9411 41.7782 26.9411 41.456C26.9411 41.1339 26.68 40.8727 26.3578 40.8727H23.6356ZM15.4071 29.5809C15.6539 29.3738 16.0218 29.406 16.2289 29.6528C16.436 29.8996 16.4038 30.2675 16.157 30.4746L12.5821 33.4743C12.3353 33.6814 11.9674 33.6492 11.7603 33.4024C11.5532 33.1556 11.5854 32.7877 11.8322 32.5806L15.4071 29.5809ZM33.1495 29.6528C33.3565 29.406 33.7245 29.3738 33.9713 29.5809L37.5462 32.5806C37.793 32.7877 37.8251 33.1556 37.6181 33.4024C37.411 33.6492 37.043 33.6814 36.7962 33.4743L33.2214 30.4746C32.9746 30.2675 32.9424 29.8996 33.1495 29.6528ZM12.7465 21.4319C13.0687 21.4298 13.3315 21.6893 13.3336 22.0115C13.3357 22.3336 13.0762 22.5965 12.754 22.5985L8.08744 22.6286C7.76528 22.6306 7.50243 22.3711 7.50036 22.049C7.49829 21.7268 7.75777 21.464 8.07993 21.4619L12.7465 21.4319ZM36.6671 22.0115C36.6692 21.6893 36.932 21.4298 37.2542 21.4319L41.9208 21.4619C42.2429 21.464 42.5024 21.7268 42.5003 22.049C42.4983 22.3711 42.2354 22.6306 41.9133 22.6286L37.2467 22.5985C36.9245 22.5965 36.665 22.3336 36.6671 22.0115ZM39.5624 10.2083C39.7695 10.4551 39.7373 10.8231 39.4905 11.0302L35.9156 14.0299C35.6689 14.2369 35.3009 14.2047 35.0938 13.958C34.8867 13.7112 34.9189 13.3432 35.1657 13.1361L38.7406 10.1364C38.9874 9.92936 39.3554 9.96155 39.5624 10.2083Z" fill="white" fill-opacity="0.7"/>
</g>
<defs>
<filter id="filter0_b" x="-1" y="-1" width="52" height="52" filterUnits="userSpaceOnUse" color-interpolation-filters="sRGB">
<feFlood flood-opacity="0" result="BackgroundImageFix"/>
<feGaussianBlur in="BackgroundImage" stdDeviation="0.5"/>
<feComposite in2="SourceAlpha" operator="in" result="effect1_backgroundBlur"/>
<feBlend mode="normal" in="SourceGraphic" in2="effect1_backgroundBlur" result="shape"/>
</filter>
</defs>
</svg>
