<svg width="26" height="26" viewBox="0 0 26 26" fill="none" xmlns="http://www.w3.org/2000/svg">
<path fill-rule="evenodd" clip-rule="evenodd" d="M26 13C26 20.1797 20.1797 26 13 26C5.8203 26 0 20.1797 0 13C0 5.8203 5.8203 0 13 0C20.1797 0 26 5.8203 26 13ZM10.9203 17.7C10.9203 17.9761 11.1442 18.2 11.4203 18.2H14.5803C14.8565 18.2 15.0803 17.9761 15.0803 17.7V17.128C15.0944 16.0903 15.791 15.0557 16.4047 14.3304C17.5044 13.3769 18.1999 11.9697 18.1999 10.4C18.1999 7.5281 15.8718 5.19998 12.9999 5.19998C10.128 5.19998 7.79991 7.5281 7.79991 10.4C7.79991 11.9704 8.4961 13.3783 9.5967 14.3318C10.2164 15.0644 10.9201 16.1122 10.9201 17.16L10.9203 17.7ZM11.2323 18.7201C11.06 18.7201 10.9203 18.8597 10.9203 19.0321C10.9203 19.2044 11.06 19.3441 11.2323 19.3441H14.7683C14.9407 19.3441 15.0803 19.2044 15.0803 19.0321C15.0803 18.8597 14.9407 18.7201 14.7683 18.7201H11.2323ZM10.9203 20.0721C10.9203 19.8997 11.06 19.7601 11.2323 19.7601H14.7683C14.9407 19.7601 15.0803 19.8997 15.0803 20.0721C15.0803 20.2444 14.9407 20.3841 14.7683 20.3841H11.2323C11.06 20.3841 10.9203 20.2444 10.9203 20.0721ZM12.272 20.8C12.0997 20.8 11.96 20.9397 11.96 21.112C11.96 21.2844 12.0997 21.424 12.272 21.424H13.728C13.9003 21.424 14.04 21.2844 14.04 21.112C14.04 20.9397 13.9003 20.8 13.728 20.8H12.272Z" fill="white" fill-opacity="0.7"/>
</svg>
