<svg width="50" height="50" viewBox="0 0 50 50" fill="none" xmlns="http://www.w3.org/2000/svg">
<path d="M30.3283 36.3005V37.6053C30.3283 38.3259 29.7314 38.9101 28.995 38.9101H20.9949C20.2586 38.9101 19.6616 38.3259 19.6616 37.6053V36.3005C19.6616 33.6705 17.856 31.0405 16.2666 29.2019C13.4458 26.8095 11.6616 23.2775 11.6616 19.3378C11.6616 12.1315 17.6311 6.28959 24.995 6.28959C32.3588 6.28959 38.3283 12.1315 38.3283 19.3378C38.3283 23.2775 36.5441 26.8095 33.7233 29.2019C32.1339 31.0405 30.3283 33.6705 30.3283 36.3005Z" fill="#323232"/>
<path d="M19.6616 40.9978C19.6616 40.5654 20.0198 40.2149 20.4616 40.2149H29.5283C29.9701 40.2149 30.3283 40.5654 30.3283 40.9978C30.3283 41.4302 29.9701 41.7807 29.5283 41.7807H20.4616C20.0198 41.7807 19.6616 41.4302 19.6616 40.9978Z" fill="#323232"/>
<path d="M19.6616 43.6075C19.6616 43.1751 20.0198 42.8246 20.4616 42.8246H29.5283C29.9701 42.8246 30.3283 43.1751 30.3283 43.6075C30.3283 44.0398 29.9701 44.3904 29.5283 44.3904H20.4616C20.0198 44.3904 19.6616 44.0398 19.6616 43.6075Z" fill="#323232"/>
<path d="M22.3283 46.2171C22.3283 45.7847 22.6865 45.4342 23.1283 45.4342H26.8616C27.3035 45.4342 27.6616 45.7847 27.6616 46.2171C27.6616 46.6495 27.3035 47 26.8616 47H23.1283C22.6865 47 22.3283 46.6495 22.3283 46.2171Z" fill="#323232"/>
<path d="M11.8435 30.2795C12.182 30.0016 12.6866 30.0448 12.9706 30.376C13.2546 30.7072 13.2104 31.2011 12.872 31.479L7.96926 35.5049C7.6308 35.7828 7.12619 35.7396 6.84219 35.4084C6.55819 35.0771 6.60233 34.5833 6.9408 34.3054L11.8435 30.2795Z" fill="#323232"/>
<path d="M37.303 30.2795C36.9645 30.0016 36.4599 30.0448 36.1759 30.376C35.8919 30.7072 35.9361 31.2011 36.2745 31.479L41.1772 35.5049C41.5157 35.7828 42.0203 35.7396 42.3043 35.4084C42.5883 35.0771 42.5441 34.5833 42.2057 34.3054L37.303 30.2795Z" fill="#323232"/>
<path d="M8.19475 19.3428C8.63657 19.34 8.99704 19.6882 8.99988 20.1206C9.00272 20.553 8.64686 20.9057 8.20504 20.9085L1.80515 20.9488C1.36333 20.9516 1.00286 20.6033 1.00002 20.171C0.997175 19.7386 1.35304 19.3858 1.79486 19.383L8.19475 19.3428Z" fill="#323232"/>
<path d="M41.8053 19.3428C41.3634 19.34 41.003 19.6882 41.0001 20.1206C40.9973 20.553 41.3531 20.9057 41.795 20.9085L48.1948 20.9488C48.6367 20.9516 48.9971 20.6033 49 20.171C49.0028 19.7386 48.647 19.3858 48.2051 19.383L41.8053 19.3428Z" fill="#323232"/>
<path d="M6.9409 5.38264C6.60243 5.10471 6.55829 4.6109 6.84229 4.27968C7.12629 3.94846 7.6309 3.90525 7.96936 4.18318L12.8721 8.20905C13.2105 8.48698 13.2547 8.98079 12.9707 9.31201C12.6867 9.64324 12.1821 9.68644 11.8436 9.40851L6.9409 5.38264Z" fill="#323232"/>
<path d="M44.8723 5.38264C45.2107 5.10471 45.2549 4.6109 44.9709 4.27968C44.6869 3.94846 44.1823 3.90525 43.8438 4.18318L38.9411 8.20905C38.6026 8.48698 38.5585 8.98079 38.8425 9.31201C39.1265 9.64324 39.6311 9.68644 39.9696 9.40851L44.8723 5.38264Z" fill="#323232"/>
</svg>
