<svg width="50" height="50" viewBox="0 0 50 50" fill="none" xmlns="http://www.w3.org/2000/svg">
<g filter="url(#filter0_b)">
<path fill-rule="evenodd" clip-rule="evenodd" d="M25 50C38.8071 50 50 38.8071 50 25C50 11.1929 38.8071 0 25 0C11.1929 0 0 11.1929 0 25C0 38.8071 11.1929 50 25 50ZM16.6667 30.1311H10V19.8689H16.6667L25 11.317V38.683L16.6667 30.1311ZM28.3333 18.1072C30.8 19.3729 32.5 21.9726 32.5 25C32.5 28.0274 30.8 30.6271 28.3333 31.8757V18.1072ZM28.3333 13.5234V10C35.0167 11.5564 40 17.6796 40 25C40 32.3204 35.0167 38.4436 28.3333 40V36.4766C33.15 35.0057 36.6667 30.4219 36.6667 25C36.6667 19.5781 33.15 14.9943 28.3333 13.5234Z" fill="white" fill-opacity="0.7"/>
</g>
<defs>
<filter id="filter0_b" x="-1" y="-1" width="52" height="52" filterUnits="userSpaceOnUse" color-interpolation-filters="sRGB">
<feFlood flood-opacity="0" result="BackgroundImageFix"/>
<feGaussianBlur in="BackgroundImage" stdDeviation="0.5"/>
<feComposite in2="SourceAlpha" operator="in" result="effect1_backgroundBlur"/>
<feBlend mode="normal" in="SourceGraphic" in2="effect1_backgroundBlur" result="shape"/>
</filter>
</defs>
</svg>
