<svg width="50" height="50" viewBox="0 0 50 50" fill="none" xmlns="http://www.w3.org/2000/svg">
<g filter="url(#filter0_b)">
<path fill-rule="evenodd" clip-rule="evenodd" d="M25 50C38.8071 50 50 38.8071 50 25C50 11.1929 38.8071 0 25 0C11.1929 0 0 11.1929 0 25C0 38.8071 11.1929 50 25 50ZM28.3335 18.2833C30.8002 19.5166 32.5002 22.05 32.5002 25C32.5002 25.3666 32.4668 25.7166 32.4168 26.05L28.3335 21.9666V18.2833ZM35.7668 29.4C36.3335 28.0333 36.6668 26.5666 36.6668 25C36.6668 19.7166 33.1502 15.25 28.3335 13.8166V10.3833C35.0168 11.9 40.0002 17.8666 40.0002 25C40.0002 27.5 39.3835 29.85 38.2835 31.9166L35.7668 29.4ZM10.0002 12.1166L12.1168 9.99996L40.0002 37.8833L37.8835 40L34.4835 36.5833C32.7168 38.0166 30.6335 39.0833 28.3335 39.6V36.1666C29.7168 35.75 30.9668 35.0666 32.0835 34.2L25.0002 27.1166V38.3333L16.6668 30H10.0002V20H17.8835L10.0002 12.1166ZM21.5168 15.15L25.0002 11.6666V18.6333L21.5168 15.15Z" fill="white" fill-opacity="0.7"/>
</g>
<defs>
<filter id="filter0_b" x="-1" y="-1" width="52" height="52" filterUnits="userSpaceOnUse" color-interpolation-filters="sRGB">
<feFlood flood-opacity="0" result="BackgroundImageFix"/>
<feGaussianBlur in="BackgroundImage" stdDeviation="0.5"/>
<feComposite in2="SourceAlpha" operator="in" result="effect1_backgroundBlur"/>
<feBlend mode="normal" in="SourceGraphic" in2="effect1_backgroundBlur" result="shape"/>
</filter>
</defs>
</svg>
