<svg width="50" height="50" viewBox="0 0 50 50" fill="none" xmlns="http://www.w3.org/2000/svg">
<path d="M34.375 25C34.375 21.3125 32.25 18.1458 29.1667 16.6042V21.2083L34.2708 26.3125C34.3333 25.8958 34.375 25.4583 34.375 25V25ZM39.5833 25C39.5833 26.9583 39.1667 28.7917 38.4583 30.5L41.6042 33.6458C42.9792 31.0625 43.75 28.125 43.75 25C43.75 16.0833 37.5208 8.625 29.1667 6.72917V11.0208C35.1875 12.8125 39.5833 18.3958 39.5833 25ZM8.89583 6.25L6.25 8.89583L16.1042 18.75H6.25V31.25H14.5833L25 41.6667V27.6458L33.8542 36.5C32.4583 37.5833 30.8958 38.4375 29.1667 38.9583V43.25C32.0417 42.6042 34.6458 41.2708 36.8542 39.4792L41.1042 43.75L43.75 41.1042L25 22.3542L8.89583 6.25ZM25 8.33333L20.6458 12.6875L25 17.0417V8.33333Z" fill="#323232"/>
</svg>
