<svg width="50" height="50" viewBox="0 0 50 50" fill="none" xmlns="http://www.w3.org/2000/svg">
<g filter="url(#filter0_b)">
<path fill-rule="evenodd" clip-rule="evenodd" d="M25 50C38.8071 50 50 38.8071 50 25C50 11.1929 38.8071 0 25 0C11.1929 0 0 11.1929 0 25C0 38.8071 11.1929 50 25 50ZM7.69231 31.4117V20.3006H15.0997L24.359 11.0413V40.6709L15.0997 31.4117H7.69231ZM28.0627 18.3932C30.8034 19.7635 32.6923 22.5783 32.6923 25.8561C32.6923 29.1339 30.8034 31.9487 28.0627 33.3006V18.3932ZM28.0627 13.4302V9.61538C35.4886 11.3006 41.0256 17.9302 41.0256 25.8561C41.0256 33.7821 35.4886 40.4117 28.0627 42.0969V38.2821C33.4145 36.6895 37.3219 31.7265 37.3219 25.8561C37.3219 19.9858 33.4145 15.0228 28.0627 13.4302Z" fill="white" fill-opacity="0.7"/>
</g>
<defs>
<filter id="filter0_b" x="-1" y="-1" width="52" height="52" filterUnits="userSpaceOnUse" color-interpolation-filters="sRGB">
<feFlood flood-opacity="0" result="BackgroundImageFix"/>
<feGaussianBlur in="BackgroundImage" stdDeviation="0.5"/>
<feComposite in2="SourceAlpha" operator="in" result="effect1_backgroundBlur"/>
<feBlend mode="normal" in="SourceGraphic" in2="effect1_backgroundBlur" result="shape"/>
</filter>
</defs>
</svg>
