<svg width="26" height="26" viewBox="0 0 26 26" fill="none" xmlns="http://www.w3.org/2000/svg">
<path fill-rule="evenodd" clip-rule="evenodd" d="M13 26C20.1797 26 26 20.1797 26 13C26 5.8203 20.1797 0 13 0C5.8203 0 0 5.8203 0 13C0 20.1797 5.8203 26 13 26ZM3.90039 16.534V10.7563H7.75224L12.5671 5.94146V21.3489L7.75224 16.534H3.90039ZM14.493 9.76442C15.9182 10.477 16.9004 11.9407 16.9004 13.6452C16.9004 15.3496 15.9182 16.8133 14.493 17.5163V9.76442ZM14.493 7.18368V5.19997C18.3545 6.07627 21.2337 9.52368 21.2337 13.6452C21.2337 17.7666 18.3545 21.2141 14.493 22.0903V20.1066C17.2759 19.2785 19.3078 16.6978 19.3078 13.6452C19.3078 10.5926 17.2759 8.01183 14.493 7.18368Z" fill="white" fill-opacity="0.7"/>
</svg>
