<svg width="26" height="26" viewBox="0 0 26 26" fill="none" xmlns="http://www.w3.org/2000/svg">
<path fill-rule="evenodd" clip-rule="evenodd" d="M13 26C20.1797 26 26 20.1797 26 13C26 5.8203 20.1797 0 13 0C5.8203 0 0 5.8203 0 13C0 20.1797 5.8203 26 13 26ZM14.7334 9.50731C16.0161 10.1486 16.9001 11.466 16.9001 13C16.9001 13.1906 16.8828 13.3726 16.8568 13.546L14.7334 11.4226V9.50731ZM18.5988 15.288C18.8934 14.5773 19.0668 13.8146 19.0668 13C19.0668 10.2526 17.2381 7.92998 14.7334 7.18464V5.39931C18.2088 6.18798 20.8001 9.29064 20.8001 13C20.8001 14.3 20.4794 15.522 19.9074 16.5966L18.5988 15.288ZM5.20009 6.30064L6.30076 5.19998L20.8001 19.6993L19.6994 20.8L17.9314 19.0233C17.0128 19.7686 15.9294 20.3233 14.7334 20.592V18.8066C15.4528 18.59 16.1028 18.2346 16.6834 17.784L13.0001 14.1006V19.9333L8.66676 15.6H5.20009V10.4H9.29942L5.20009 6.30064ZM11.1888 7.87798L13.0001 6.06664V9.68931L11.1888 7.87798Z" fill="white" fill-opacity="0.7"/>
</svg>
